<svg data-v-0dd9719b="" version="1.0" xmlns="http://www.w3.org/2000/svg" xmlns:xlink="http://www.w3.org/1999/xlink" width="100%" height="100%" viewBox="0 0 340.000000 250.000000" preserveAspectRatio="xMidYMid meet" color-interpolation-filters="sRGB" style="margin: auto;"> <rect data-v-0dd9719b="" x="0" y="0" width="100%" height="100%" fill="#ffffff" fill-opacity="1" class="background"></rect> <rect data-v-0dd9719b="" x="0" y="0" width="100%" height="100%" fill="url(#watermark)" fill-opacity="1" class="watermarklayer"></rect> <g data-v-0dd9719b="" fill="#fcb927" class="icon-text-wrapper icon-svg-group iconsvg" transform="translate(49.74000549316406,95)"><g class="iconsvg-imagesvg" transform="translate(0,0)"><g><rect fill="#fcb927" fill-opacity="0" stroke-width="2" x="0" y="0" width="60" height="60" class="image-rect"></rect> <svg filter="url(#colors8995962301)" x="0" y="0" width="60" height="60" filtersec="colorsf1083430350" class="image-svg-svg primary" style="overflow: visible;"><svg xmlns="http://www.w3.org/2000/svg" viewBox="0.7999999999999998 0.7999999999999998 113.2 113.2"><path d="M31 29.4L57.4 2.9l26.5 26.5C69.3 44 45.6 44 31 29.4zM29.4 31L2.9 57.4l26.5 26.5C44 69.3 44 45.6 29.4 31zM31 85.5L57.4 112l26.5-26.5c-14.6-14.6-38.3-14.6-52.9 0zm54.5-1.6L112 57.4 85.5 31c-14.6 14.6-14.6 38.3 0 52.9zm9.8-9.7L112 57.4 95.3 40.7c-9.3 9.2-9.3 24.2 0 33.5zM74.2 19.6L57.4 2.8 40.7 19.6c9.2 9.2 24.2 9.2 33.5 0zM19.6 40.7L2.8 57.4l16.7 16.7c9.3-9.2 9.3-24.2.1-33.4zm21.1 54.6L57.4 112l16.7-16.7c-9.2-9.3-24.2-9.3-33.4 0z" fill="none" stroke="#202121" stroke-width="4" stroke-miterlimit="10"></path></svg></svg> <defs><filter id="colors8995962301"><feColorMatrix type="matrix" values="0 0 0 0 0.1328125  0 0 0 0 0.12890625  0 0 0 0 0.60546875  0 0 0 1 0" class="icon-fecolormatrix"></feColorMatrix></filter> <filter id="colorsf1083430350"><feColorMatrix type="matrix" values="0 0 0 0 0.99609375  0 0 0 0 0.99609375  0 0 0 0 0.99609375  0 0 0 1 0" class="icon-fecolormatrix"></feColorMatrix></filter> <filter id="colorsb4241946420"><feColorMatrix type="matrix" values="0 0 0 0 0  0 0 0 0 0  0 0 0 0 0  0 0 0 1 0" class="icon-fecolormatrix"></feColorMatrix></filter></defs></g></g> <g transform="translate(67,1.333749771118164)"><g data-gra="path-name" fill-rule="" class="tp-name iconsvg-namesvg" transform="translate(0,0)"><g transform="scale(1)"><g><path d="M27.86-14.76Q30.33-11.61 33.88-8.96 37.44-6.3 42.43-3.73L42.43-3.73 37.44 3.78Q31.63 1.08 27.52-3.8 23.4-8.69 20.97-14.76L20.97-14.76 16.52-14.76 16.52-5.35Q21.24-6.03 23.49-6.43L23.49-6.43 24.88-2.56Q21.78-0.18 17.5 1.28 13.23 2.75 7.69 3.87L7.69 3.87 6.12-4.32Q6.88-4.37 8.87-4.54L8.87-4.54 8.91-14.76 3.82-14.76 3.82-21.02 8.91-21.02 8.96-37.03 16.52-37.03 16.52-21.02 41.22-21.02 41.22-14.76 27.86-14.76ZM39.69-30.29Q34.92-26.64 30.4-24.77 25.88-22.9 18.95-21.69L18.95-21.69 17.46-25.79Q22.5-28.39 25.9-30.82 29.29-33.25 33.12-36.81L33.12-36.81 39.69-30.29ZM88.6-10.89L84.87-5.4Q82.35-6.79 80.73-8.01L80.73-8.01 80.73 4.54 72.63 4.54 72.63 2.79 62.55 2.83 62.55 4.54 54.41 4.54 54.45-9.09Q51.8-7.29 48.91-5.8L48.91-5.8 46.53-9.27Q50.94-13.05 54-16.74L54-16.74 47.43-16.74 47.43-21.87 57.6-21.87 58.41-23.31 51.03-23.31 51.03-28.04 60.48-28.04 60.93-29.43 49.59-29.43 49.59-34.56 62.46-34.56 63.18-37.57 71.82-36.63 71.37-34.6 85.37-34.6 85.37-29.47 69.93-29.47Q69.8-29.16 69.7-28.82 69.61-28.48 69.48-28.08L69.48-28.08 83.97-28.08 83.97-23.36 67.5-23.31Q67.28-22.81 66.73-21.87L66.73-21.87 87.61-21.91 87.61-16.79 79.34-16.79Q83.03-13.63 88.6-10.89L88.6-10.89ZM73.22-16.79L63.27-16.74 61.74-15.03 74.25-15.03 73.22-16.79ZM62.55-8.28L72.63-8.32 72.63-9.99 62.55-9.95 62.55-8.28ZM62.55-4.05L62.55-2.29 72.63-2.34 72.63-4.09 62.55-4.05ZM133.69-12.24L126.94-4.95Q122-11.61 116.91-16.79L116.91-16.79 116.91 4.41 108.67 4.41 108.67-14.85Q106.11-12.51 102.98-10.35 99.86-8.19 95.76-5.85L95.76-5.85 92.75-10.04Q98.37-14.8 101.75-18.88 105.12-22.95 108.09-28.57L108.09-28.57 94.05-28.57 94.05-34.6 131.18-34.6 131.18-28.57 118.39-28.57Q116.5-24.43 114.16-21.15L114.16-21.15 116.91-21.15 116.91-19.57 118.58-21.55Q122.67-19.84 126.29-17.62 129.91-15.39 133.69-12.24L133.69-12.24ZM177.34-18.9L154.53-18.9 153.94-17.95 173.43-17.95 173.43 4.63 165.87 4.63 165.87 3.24 153.22 3.24 153.22 4.63 145.66 4.63 145.66-9Q142.92-6.84 139.54-4.95L139.54-4.95 136.53-8.41Q139.68-11.43 141.82-13.93 143.96-16.43 145.49-18.9L145.49-18.9 137.66-18.9 137.66-23.85 148-23.85 148.54-25.24 140.63-25.24 140.63-29.65 149.94-29.65 150.25-31Q144.22-31.18 141.16-31.32L141.16-31.32 140.85-35.01Q150.21-35.41 157.43-36.02 164.66-36.63 172.89-37.75L172.89-37.75 174.33-31.68Q165.74-31.09 159.57-30.96L159.57-30.96 159.21-29.65 175.05-29.65 175.05-25.29 157.63-25.24 157.09-23.85 177.34-23.89 177.34-18.9ZM153.22-11.79L165.87-11.79 165.87-13.23 153.22-13.18 153.22-11.79ZM153.22-6.57L165.87-6.57 165.87-7.83 153.22-7.83 153.22-6.57ZM153.22-2.56L153.22-1.3 165.87-1.3 165.87-2.56 153.22-2.56Z" transform="translate(-3.819999933242798, 37.75)"></path></g> <!----> <!----> <!----> <!----> <!----> <!----> <!----></g></g> <g data-gra="path-slogan" fill-rule="" class="tp-slogan iconsvg-slogansvg" fill="#22219b" transform="translate(2.1999969482421875,48.380001068115234)"><!----> <!----> <g transform="scale(1, 1)"><g transform="scale(1)"><path d="M8.06-6.05L8.06-6.05L6.94-6.05Q6.52-7.78 4.55-7.83L4.55-7.83Q1.83-7.69 1.73-4.36L1.73-4.36Q1.73-0.80 4.59-0.80L4.59-0.80Q6.56-0.84 7.03-3.19L7.03-3.19L8.16-3.19Q7.64 0.05 4.36 0.14L4.36 0.14Q0.61 0 0.52-4.31L0.52-4.31Q0.70-8.63 4.55-8.81L4.55-8.81Q7.59-8.72 8.06-6.05ZM10.69-5.06L15.19-5.06L15.19-8.58L16.36-8.58L16.36 0L15.19 0L15.19-3.98L10.69-3.98L10.69 0L9.52 0L9.52-8.58L10.69-8.58L10.69-5.06ZM23.81 0L22.97-2.48L19.50-2.48L18.61 0L17.44 0L20.67-8.58L21.98-8.58L25.08 0L23.81 0ZM21.23-7.31L19.88-3.52L22.55-3.52L21.28-7.31L21.23-7.31ZM27.52-8.58L31.83-1.64L31.83-8.58L32.95-8.58L32.95 0L31.64 0L27.28-6.94L27.23-6.94L27.23 0L26.11 0L26.11-8.58L27.52-8.58ZM41.16-3.61L38.53-3.61L38.53-4.59L42.28-4.59L42.28 0L41.53 0L41.25-1.08Q40.27 0.09 38.44 0.14L38.44 0.14Q36.70 0.14 35.77-0.75L35.77-0.75Q34.36-2.06 34.41-4.36L34.41-4.36Q34.73-8.63 38.48-8.81L38.48-8.81Q41.67-8.63 42.14-6L42.14-6L41.02-6Q40.55-7.78 38.44-7.83L38.44-7.83Q35.77-7.64 35.63-4.31L35.63-4.31Q35.63-0.75 38.48-0.75L38.48-0.75Q39.52-0.75 40.27-1.31L40.27-1.31Q41.20-2.06 41.16-3.61L41.16-3.61ZM51.23-6.05L51.23-6.05L50.11-6.05Q49.69-7.78 47.72-7.83L47.72-7.83Q45-7.69 44.91-4.36L44.91-4.36Q44.91-0.80 47.77-0.80L47.77-0.80Q49.73-0.84 50.20-3.19L50.20-3.19L51.33-3.19Q50.81 0.05 47.53 0.14L47.53 0.14Q43.78 0 43.69-4.31L43.69-4.31Q43.88-8.63 47.72-8.81L47.72-8.81Q50.77-8.72 51.23-6.05ZM53.86-5.06L58.36-5.06L58.36-8.58L59.53-8.58L59.53 0L58.36 0L58.36-3.98L53.86-3.98L53.86 0L52.69 0L52.69-8.58L53.86-8.58L53.86-5.06ZM66.98-3.19L66.98-8.58L68.16-8.58L68.16-3.05Q68.02 0.05 64.64 0.14L64.64 0.14Q61.50 0.05 61.36-2.86L61.36-2.86L61.36-8.58L62.53-8.58L62.53-3.19Q62.58-0.84 64.69-0.80L64.69-0.80Q66.98-0.84 66.98-3.19L66.98-3.19ZM71.34-8.58L75.66-1.64L75.66-8.58L76.78-8.58L76.78 0L75.47 0L71.11-6.94L71.06-6.94L71.06 0L69.94 0L69.94-8.58L71.34-8.58ZM85.41 0L81.94 0L81.94-8.58L85.45-8.58Q88.92-8.39 89.06-4.41L89.06-4.41Q88.88-0.09 85.41 0L85.41 0ZM85.27-7.64L83.11-7.64L83.11-0.98L85.36-0.98Q87.80-1.13 87.89-4.31L87.89-4.31Q87.84-7.55 85.27-7.64L85.27-7.64ZM97.31-4.27L97.31-4.27Q97.13-7.64 94.31-7.83L94.31-7.83Q91.45-7.69 91.31-4.27L91.31-4.27Q91.45-0.94 94.31-0.80L94.31-0.80Q97.13-0.98 97.31-4.27ZM98.48-4.27L98.48-4.27Q98.20 0 94.31 0.14L94.31 0.14Q90.38 0 90.09-4.27L90.09-4.27Q90.33-8.72 94.31-8.81L94.31-8.81Q98.20-8.67 98.48-4.27ZM101.16-1.03L106.31-1.03L106.31 0L99.98 0L99.98-8.58L106.22-8.58L106.22-7.59L101.16-7.59L101.16-4.92L105.84-4.92L105.84-3.89L101.16-3.89L101.16-1.03ZM114.09-6.09L114.09-6.09L113.02-6.09Q112.92-7.73 110.86-7.83L110.86-7.83Q108.94-7.78 108.94-6.33L108.94-6.33Q108.94-5.39 109.97-5.25L109.97-5.25L112.41-4.69Q114.33-4.22 114.33-2.34L114.33-2.34Q114.28 0.05 110.95 0.14L110.95 0.14Q109.13 0.14 108.38-0.61L108.38-0.61Q107.44-1.31 107.48-2.77L107.48-2.77L108.61-2.77Q108.66-0.80 110.95-0.75L110.95-0.75Q113.20-0.80 113.25-2.20L113.25-2.20Q113.44-3.38 111.38-3.75L111.38-3.75L109.59-4.13Q107.77-4.64 107.77-6.19L107.77-6.19Q107.91-8.72 110.77-8.81L110.77-8.81Q114-8.81 114.09-6.09ZM117.19-8.58L121.50-1.64L121.50-8.58L122.63-8.58L122.63 0L121.31 0L116.95-6.94L116.91-6.94L116.91 0L115.78 0L115.78-8.58L117.19-8.58ZM125.11-5.53L124.22-5.53L124.22-8.58L125.11-8.58L125.11-5.53ZM128.86-7.59L125.95-7.59L125.95-8.58L132.89-8.58L132.89-7.59L129.98-7.59L129.98 0L128.86 0L128.86-7.59ZM137.25-8.58L138.42-8.58L138.42-1.03L142.78-1.03L142.78 0L137.25 0L137.25-8.58ZM150.70-4.27L150.70-4.27Q150.52-7.64 147.70-7.83L147.70-7.83Q144.84-7.69 144.70-4.27L144.70-4.27Q144.84-0.94 147.70-0.80L147.70-0.80Q150.52-0.98 150.70-4.27ZM151.88-4.27L151.88-4.27Q151.59 0 147.70 0.14L147.70 0.14Q143.77 0 143.48-4.27L143.48-4.27Q143.72-8.72 147.70-8.81L147.70-8.81Q151.59-8.67 151.88-4.27ZM160.03-4.27L160.03-4.27Q159.84-7.64 157.03-7.83L157.03-7.83Q154.17-7.69 154.03-4.27L154.03-4.27Q154.17-0.94 157.03-0.80L157.03-0.80Q159.84-0.98 160.03-4.27ZM161.20-4.27L161.20-4.27Q160.92 0 157.03 0.14L157.03 0.14Q153.09 0 152.81-4.27L152.81-4.27Q153.05-8.72 157.03-8.81L157.03-8.81Q160.92-8.67 161.20-4.27ZM165.09-4.31L163.73-3.05L163.73 0L162.56 0L162.56-8.58L163.73-8.58L163.73-4.41L167.91-8.58L169.55-8.58L165.94-5.11L169.64 0L168.09 0L165.09-4.31Z" transform="translate(-0.515625, 8.8125)"></path></g></g></g></g></g><defs v-gra="od"></defs></svg>